<!-- 
<svg xmlns="http://www.w3.org/2000/svg"   viewBox="0 0 32 32" width="100%" height="100%" fill="white"  xmlns:xlink="http://www.w3.org/1999/xlink" preserveAspectRatio="xMidYMid meet"><rect id="svgEditorBackground" x="0" y="0" width="32" height="32" style="fill: none; stroke: none;"/>
  <path opacity=".25" d="M16 0 A16 16 0 0 0 16 32 A16 16 0 0 0 16 0 M16 4 A12 12 0 0 1 16 28 A12 12 0 0 1 16 4" fill="black" style="fill-opacity: 0.23;"/>
  <path d="M 16 0 A 16 16 0 0 1 32 16 L 28 16 A 12 12 0 0 0 16 4 Z" transform="rotate(38.1861 16 16)" style="fill-opacity: 0.39;" fill="#0247b1">
    <animateTransform attributeName="transform" type="rotate" from="0 16 16" to="360 16 16" dur="0.8s" repeatCount="indefinite"/>
  </path>
</svg> -->


<!-- By Sam Herbert (@sherb), for everyone. More @ http://goo.gl/7AJzbL -->
<svg width="55" height="80" viewBox="0 0 55 80" xmlns="http://www.w3.org/2000/svg" fill="#0247b1">
    <g transform="matrix(1 0 0 -1 0 80)">
        <rect width="10" height="20" rx="3">
            <animate attributeName="height"
                 begin="0s" dur="8.6s"
                 values="20;45;57;80;64;32;66;45;64;23;66;13;64;56;34;34;2;23;76;79;20" calcMode="linear"
                 repeatCount="indefinite" />
        </rect>
        <rect x="15" width="10" height="80" rx="3">
            <animate attributeName="height"
                 begin="0s" dur="4s"
                 values="80;55;33;5;75;23;73;33;12;14;60;80" calcMode="linear"
                 repeatCount="indefinite" />
        </rect>
        <rect x="30" width="10" height="50" rx="3">
            <animate attributeName="height"
                 begin="0s" dur="2.8s"
                 values="50;34;78;23;56;23;34;76;80;54;21;50" calcMode="linear"
                 repeatCount="indefinite" />
        </rect>
        <rect x="45" width="10" height="30" rx="3">
            <animate attributeName="height"
                 begin="0s" dur="4s"
                 values="30;45;13;80;56;72;45;76;34;23;67;30" calcMode="linear"
                 repeatCount="indefinite" />
        </rect>
    </g>
</svg>